<svg width="71" height="31" viewBox="0 0 71 31" fill="none" xmlns="http://www.w3.org/2000/svg">
<path d="M0.595132 26.0253C0.381495 26.0253 0.213637 25.9638 0.0915587 25.841C-0.0305196 25.7489 -0.0305196 25.6721 0.0915587 25.6107C0.762989 25.4879 1.34286 25.2422 1.83117 24.8737C2.31949 24.4745 2.71624 23.9832 3.02144 23.3997C3.66235 22.3249 4.288 21.2501 4.89839 20.1753C5.5393 19.0698 6.14969 17.9643 6.72956 16.8588C7.43151 15.5077 8.14872 14.1565 8.88119 12.8053C9.61366 11.4235 10.3461 10.057 11.0786 8.70579C11.7806 7.44675 12.4062 6.23378 12.9556 5.06686C13.5049 3.89995 13.9169 3.05547 14.1916 2.53343C14.4052 2.13422 14.7715 1.78108 15.2903 1.474C15.8397 1.13621 16.3737 0.875185 16.8926 0.690935C16.7095 0.690935 16.5263 0.690935 16.3432 0.690935C16.1601 0.660228 15.9617 0.644874 15.7481 0.644874C14.802 0.644874 13.7643 0.70629 12.6351 0.829124C11.5364 0.921247 10.453 1.07479 9.38477 1.28975C8.3471 1.5047 7.43151 1.79643 6.63801 2.16493C5.8445 2.53343 5.3104 2.9787 5.03573 3.50074C4.91365 3.77712 4.80683 4.05349 4.71527 4.32987C4.62371 4.60624 4.57794 4.88261 4.57794 5.15899C4.57794 5.86528 4.82209 6.37197 5.3104 6.67905C5.34092 6.67905 5.35618 6.70976 5.35618 6.77117C5.35618 6.83259 5.29515 6.89401 5.17307 6.95542C5.08151 7.01684 5.00521 7.03219 4.94417 7.00149C4.63897 6.84794 4.288 6.47944 3.89124 5.89599C3.52501 5.28182 3.28085 4.77514 3.15878 4.37593C3.06722 4.00743 3.02144 3.66964 3.02144 3.36256C3.02144 2.56414 3.28085 1.94997 3.79969 1.52006C4.31852 1.05944 4.97469 0.736998 5.7682 0.552747C6.56171 0.33779 7.37048 0.214957 8.1945 0.184247C9.04905 0.122832 9.79678 0.0921236 10.4377 0.0921236C11.4143 0.0921236 12.5741 0.0921236 13.9169 0.0921236C15.2598 0.0614158 16.4958 0.0460618 17.6251 0.0460618C17.8997 0.0460618 18.2049 0.0460618 18.5406 0.0460618C18.8764 0.0153539 19.2273 0 19.5936 0C20.4176 0 21.2721 0.0460618 22.1572 0.138185C23.0423 0.230311 23.851 0.429915 24.5835 0.736997C25.316 1.04408 25.8806 1.52006 26.2773 2.16493C26.8877 3.11689 27.1929 4.13026 27.1929 5.20505C27.1929 6.40267 26.842 7.53888 26.14 8.61367C25.4686 9.65775 24.614 10.579 23.5764 11.3774C22.5387 12.1758 21.4858 12.79 20.4176 13.2199C19.4104 13.6191 18.2812 13.8955 17.0299 14.049C15.8091 14.2026 14.7104 14.2793 13.7338 14.2793C13.4286 14.2793 13.1234 14.2793 12.8182 14.2793C12.5435 14.2486 12.2994 14.2179 12.0857 14.1872C12.0247 14.1872 11.9942 14.1565 11.9942 14.0951C11.9942 13.9723 12.1163 13.8034 12.3604 13.5884C12.6046 13.3427 12.803 13.2353 12.9556 13.266C13.1997 13.2967 13.4439 13.312 13.688 13.312C13.9322 13.312 14.1916 13.312 14.4663 13.312C15.626 13.312 16.8621 13.1585 18.1744 12.8514C19.4867 12.5443 20.6923 11.9609 21.791 11.101C22.9202 10.2105 23.7747 8.92075 24.3546 7.2318C24.5072 6.8633 24.5988 6.4948 24.6293 6.1263C24.6903 5.72709 24.7208 5.34324 24.7208 4.97474C24.7208 3.93066 24.4614 3.00941 23.9426 2.21099C23.4238 1.41258 22.676 0.951955 21.6994 0.829124C21.5773 0.798414 21.44 0.783059 21.2874 0.783059C21.1348 0.783059 20.9822 0.783059 20.8296 0.783059C20.2497 0.783059 19.6088 0.85983 18.9069 1.01337C18.2354 1.16691 17.7319 1.45864 17.3962 1.88856C16.6332 2.90193 15.9007 4.05349 15.1987 5.34324C14.4968 6.60228 13.8254 7.89202 13.1845 9.21248C12.5435 10.5022 11.9332 11.7152 11.3533 12.8514C11.2007 13.1585 10.9107 13.7112 10.4835 14.5097C10.0562 15.2774 9.58314 16.1679 9.06431 17.1813C8.54548 18.1639 8.05717 19.1466 7.59937 20.1293C7.14158 21.1119 6.77534 21.9871 6.50067 22.7548C6.25651 23.5225 6.19547 24.0446 6.31755 24.321C6.34807 24.3517 6.36333 24.3977 6.36333 24.4591C6.36333 24.5513 6.31755 24.5973 6.22599 24.5973C5.98184 24.5973 5.73768 24.5359 5.49352 24.4131C5.24937 24.2902 4.95943 24.2288 4.62371 24.2288C4.31852 24.2288 4.01332 24.3056 3.70813 24.4591C3.40293 24.582 3.00618 24.8123 2.51786 25.1501C2.02955 25.4879 1.4802 25.7642 0.869808 25.9792C0.808769 26.0099 0.71721 26.0253 0.595132 26.0253Z" fill="black"/>
<path d="M35.8002 7.55423C35.3729 7.55423 35.0677 7.41605 34.8846 7.13967C34.7625 6.98613 34.7015 6.78653 34.7015 6.54086C34.7015 6.04953 34.9304 5.65032 35.3882 5.34324C35.7239 5.15899 36.0291 5.06686 36.3037 5.06686C36.7615 5.06686 37.082 5.20505 37.2651 5.48143C37.3872 5.63497 37.4482 5.83457 37.4482 6.08024C37.4482 6.57157 37.2041 6.97078 36.7158 7.27786C36.4411 7.46211 36.1359 7.55423 35.8002 7.55423ZM27.8346 25.2883C27.5294 25.2883 27.2699 25.2268 27.0563 25.104C26.8732 24.9812 26.7816 24.7509 26.7816 24.4131C26.7816 23.9832 26.8885 23.4765 27.1021 22.893C27.3462 22.3096 27.6057 21.7261 27.8803 21.1426C28.1855 20.5592 28.4144 20.0832 28.567 19.7147C28.7807 19.2848 29.0401 18.732 29.3453 18.0565C29.681 17.3502 29.9862 16.6899 30.2609 16.0758C30.5661 15.4309 30.7797 14.9856 30.9018 14.74C30.4745 15.2006 29.9557 15.7841 29.3453 16.4903C28.7654 17.1659 28.2161 17.8262 27.6972 18.471C27.1784 19.1159 26.7816 19.6226 26.507 19.9911C26.4154 20.1139 26.3391 20.1753 26.2781 20.1753C26.217 20.1753 26.1865 20.0986 26.1865 19.945C26.1865 19.6994 26.2628 19.469 26.4154 19.2541C26.9953 18.5171 27.6362 17.688 28.3381 16.7667C29.0706 15.8455 29.7268 15.001 30.3066 14.2333C30.8865 13.4349 31.2528 12.9128 31.4054 12.6672C31.7411 12.6057 32.2294 12.5136 32.8703 12.3908C33.5417 12.268 33.9995 12.0991 34.2437 11.8841C34.3352 11.792 34.4268 11.7459 34.5183 11.7459C34.5794 11.7459 34.6099 11.8073 34.6099 11.9302C34.6404 12.0223 34.6099 12.1298 34.5183 12.2526C34.3352 12.4676 34.0148 12.9896 33.557 13.8187C33.0992 14.6478 32.6109 15.5691 32.092 16.5825C31.6037 17.5651 31.1459 18.4557 30.7187 19.2541C30.2914 20.0832 29.9251 20.8816 29.62 21.6493C29.3148 22.417 29.1622 22.9698 29.1622 23.3076C29.1622 23.7375 29.3758 23.9525 29.8031 23.9525C30.1998 23.9525 30.7034 23.7068 31.3138 23.2155C31.9547 22.7241 32.5956 22.1407 33.2365 21.4651C33.8774 20.7588 34.442 20.1139 34.9304 19.5305C35.083 19.3462 35.2661 19.1313 35.4797 18.8856C35.7239 18.6092 35.8765 18.4403 35.9375 18.3789C35.9985 18.4403 36.0291 18.5478 36.0291 18.7013C35.9985 18.9163 35.9222 19.1313 35.8002 19.3462C35.6781 19.5305 35.556 19.6994 35.4339 19.8529C34.793 20.6513 34.0911 21.4804 33.3281 22.3403C32.5651 23.1694 31.7258 23.8757 30.8102 24.4591C29.8946 25.0119 28.9027 25.2883 27.8346 25.2883Z" fill="black"/>
<path d="M47.4914 31C47.0336 31 46.5758 30.8618 46.118 30.5854C45.6603 30.3398 45.0804 29.8638 44.3784 29.1575C43.707 28.4512 42.7609 27.4071 41.5401 26.0253C40.8687 25.2268 40.2278 24.5206 39.6174 23.9064C39.0375 23.2922 38.3203 22.9851 37.4657 22.9851C36.7943 22.9851 36.1381 23.2001 35.4972 23.63C34.8563 24.0292 34.4443 24.5666 34.2612 25.2422C34.2307 25.4264 34.1849 25.5953 34.1239 25.7489C34.0628 25.9024 33.9865 26.056 33.895 26.2095C33.8034 26.3631 33.6508 26.4398 33.4372 26.4398C33.2846 26.4398 33.1472 26.3784 33.0252 26.2556C32.8726 26.1327 32.7963 25.9638 32.7963 25.7489C32.7963 25.6568 32.8573 25.4879 32.9794 25.2422C33.132 24.9658 33.4219 24.5973 33.8492 24.1367C34.2765 23.6454 34.7495 23.1233 35.2683 22.5706C35.7872 22.0178 36.2755 21.5111 36.7333 21.0505C37.1911 20.5592 37.5573 20.206 37.832 19.9911C39.0833 18.9163 40.243 17.8876 41.3112 16.9049C42.4099 15.8915 43.6002 14.8628 44.882 13.8187C44.4853 13.8187 43.9359 13.8341 43.2339 13.8648C42.532 13.8955 41.7843 13.9416 40.9908 14.003C40.2278 14.0644 39.5563 14.1565 38.9765 14.2793C38.3966 14.4022 38.0304 14.5711 37.8778 14.786C37.6641 15.0624 37.4505 15.2006 37.2369 15.2006C37.1148 15.2006 37.0537 15.1545 37.0537 15.0624C37.0537 14.9703 37.13 14.8474 37.2826 14.6939C37.5573 14.3868 37.7709 14.0951 37.9235 13.8187C38.0761 13.5116 38.2287 13.2199 38.3813 12.9435C38.7171 12.9742 39.0528 13.005 39.3885 13.0357C39.7242 13.0357 40.0752 13.0357 40.4414 13.0357C41.357 13.0357 42.2878 13.0203 43.2339 12.9896C44.2106 12.9282 45.1109 12.8975 45.9349 12.8975C46.2096 12.8975 46.4232 13.0971 46.5758 13.4963C46.759 13.8648 46.8658 14.1565 46.8963 14.3715C45.8586 15.1392 44.6989 15.9837 43.4171 16.9049C42.1352 17.7954 40.8839 18.732 39.6632 19.7147C39.0833 20.1446 38.4119 20.7127 37.6489 21.419C36.9164 22.0946 36.2907 22.6474 35.7719 23.0773C36.6265 22.6474 37.42 22.4324 38.1524 22.4324C39.1291 22.4324 39.9989 22.7548 40.7619 23.3997C41.5554 24.0446 42.4099 24.8123 43.3255 25.7028C44.2411 26.6241 45.1567 27.4225 46.0723 28.0981C46.9879 28.7737 47.7661 29.1114 48.407 29.1114C48.6207 29.0807 48.8343 29.0347 49.0479 28.9733C49.2616 28.9118 49.4447 28.8197 49.5973 28.6969C49.8414 28.4819 49.9635 28.2363 49.9635 27.9599C49.9635 27.6221 49.8262 27.2689 49.5515 26.9004C49.2768 26.5627 49.0327 26.3323 48.819 26.2095C48.7885 26.1788 48.7733 26.1481 48.7733 26.1174C48.7733 26.0253 48.8343 25.9485 48.9564 25.8871C49.0784 25.8257 49.2005 25.8257 49.3226 25.8871C49.7194 26.102 50.0398 26.4091 50.284 26.8083C50.5281 27.2075 50.6502 27.6528 50.6502 28.1441C50.6502 28.6355 50.4976 29.0961 50.1924 29.526C49.9177 29.9252 49.5362 30.263 49.0479 30.5394C48.5596 30.8465 48.0408 31 47.4914 31Z" fill="black"/>
<path d="M58.221 31C57.7632 31 57.3054 30.8618 56.8476 30.5854C56.3898 30.3398 55.8099 29.8638 55.108 29.1575C54.4365 28.4512 53.4904 27.4071 52.2696 26.0253C51.5982 25.2268 50.9573 24.5206 50.3469 23.9064C49.767 23.2922 49.0498 22.9851 48.1953 22.9851C47.5239 22.9851 46.8677 23.2001 46.2268 23.63C45.5859 24.0292 45.1738 24.5666 44.9907 25.2422C44.9602 25.4264 44.9144 25.5953 44.8534 25.7489C44.7924 25.9024 44.7161 26.056 44.6245 26.2095C44.5329 26.3631 44.3803 26.4398 44.1667 26.4398C44.0141 26.4398 43.8768 26.3784 43.7547 26.2556C43.6021 26.1327 43.5258 25.9638 43.5258 25.7489C43.5258 25.6568 43.5868 25.4879 43.7089 25.2422C43.8615 24.9658 44.1514 24.5973 44.5787 24.1367C45.006 23.6454 45.479 23.1233 45.9979 22.5706C46.5167 22.0178 47.005 21.5111 47.4628 21.0505C47.9206 20.5592 48.2868 20.206 48.5615 19.9911C49.8128 18.9163 50.9726 17.8876 52.0408 16.9049C53.1395 15.8915 54.3297 14.8628 55.6115 13.8187C55.2148 13.8187 54.6654 13.8341 53.9635 13.8648C53.2615 13.8955 52.5138 13.9416 51.7203 14.003C50.9573 14.0644 50.2859 14.1565 49.706 14.2793C49.1261 14.4022 48.7599 14.5711 48.6073 14.786C48.3937 15.0624 48.18 15.2006 47.9664 15.2006C47.8443 15.2006 47.7833 15.1545 47.7833 15.0624C47.7833 14.9703 47.8596 14.8474 48.0122 14.6939C48.2868 14.3868 48.5005 14.0951 48.6531 13.8187C48.8057 13.5116 48.9583 13.2199 49.1109 12.9435C49.4466 12.9742 49.7823 13.005 50.118 13.0357C50.4537 13.0357 50.8047 13.0357 51.1709 13.0357C52.0865 13.0357 53.0174 13.0203 53.9635 12.9896C54.9401 12.9282 55.8404 12.8975 56.6645 12.8975C56.9391 12.8975 57.1528 13.0971 57.3054 13.4963C57.4885 13.8648 57.5953 14.1565 57.6258 14.3715C56.5882 15.1392 55.4284 15.9837 54.1466 16.9049C52.8648 17.7954 51.6135 18.732 50.3927 19.7147C49.8128 20.1446 49.1414 20.7127 48.3784 21.419C47.6459 22.0946 47.0203 22.6474 46.5014 23.0773C47.356 22.6474 48.1495 22.4324 48.882 22.4324C49.8586 22.4324 50.7284 22.7548 51.4914 23.3997C52.2849 24.0446 53.1395 24.8123 54.055 25.7028C54.9706 26.6241 55.8862 27.4225 56.8018 28.0981C57.7174 28.7737 58.4956 29.1114 59.1365 29.1114C59.3502 29.0807 59.5638 29.0347 59.7775 28.9733C59.9911 28.9118 60.1742 28.8197 60.3268 28.6969C60.571 28.4819 60.693 28.2363 60.693 27.9599C60.693 27.6221 60.5557 27.2689 60.281 26.9004C60.0064 26.5627 59.7622 26.3323 59.5486 26.2095C59.518 26.1788 59.5028 26.1481 59.5028 26.1174C59.5028 26.0253 59.5638 25.9485 59.6859 25.8871C59.808 25.8257 59.9301 25.8257 60.0521 25.8871C60.4489 26.102 60.7693 26.4091 61.0135 26.8083C61.2577 27.2075 61.3797 27.6528 61.3797 28.1441C61.3797 28.6355 61.2271 29.0961 60.9219 29.526C60.6473 29.9252 60.2658 30.263 59.7775 30.5394C59.2892 30.8465 58.7703 31 58.221 31Z" fill="black"/>
<path d="M62.7703 25.2883C62.4651 25.2883 62.2057 25.2268 61.992 25.104C61.7784 24.9812 61.6716 24.7509 61.6716 24.4131C61.6716 23.9832 61.7784 23.4918 61.992 22.9391C62.2057 22.3863 62.4498 21.8489 62.7245 21.3269C62.9992 20.7741 63.2433 20.3289 63.457 19.9911C62.3888 21.1273 61.2748 22.2021 60.1151 23.2155C59.5352 23.7068 58.8943 24.1674 58.1923 24.5973C57.4904 25.0272 56.7427 25.2422 55.9492 25.2422C55.644 25.2422 55.4303 25.1501 55.3083 24.9658C55.1862 24.7509 55.1251 24.5052 55.1251 24.2288C55.1251 24.0753 55.1404 23.9678 55.1709 23.9064C55.3235 22.7088 55.705 21.4651 56.3154 20.1753C56.9258 18.8856 57.6735 17.6726 58.5586 16.5364C59.4437 15.4002 60.344 14.479 61.2596 13.7727C62.2972 12.9742 63.4417 12.575 64.693 12.575H69.9576C70.1102 12.575 70.1865 12.6365 70.1865 12.7593C70.1865 13.005 70.0492 13.1278 69.7745 13.1278C69.4693 13.1278 69.1641 13.3274 68.8589 13.7266C68.5537 14.0951 68.3249 14.4022 68.1722 14.6478C67.9586 14.9856 67.6229 15.5537 67.1651 16.3522C66.7073 17.1506 66.2343 18.0258 65.7459 18.9777C65.2881 19.899 64.8914 20.7588 64.5557 21.5572C64.22 22.3556 64.0521 22.9391 64.0521 23.3076C64.0521 23.7375 64.2657 23.9525 64.693 23.9525C65.1508 23.9525 65.6696 23.7375 66.2495 23.3076C66.8294 22.8777 67.4093 22.3556 67.9891 21.7415C68.5995 21.0966 69.1489 20.4671 69.6372 19.8529C70.156 19.208 70.568 18.7013 70.8732 18.3328C71.0563 18.5171 71.0411 18.7781 70.8275 19.1159C70.6443 19.423 70.4765 19.6686 70.3239 19.8529C69.7135 20.6513 69.0115 21.4804 68.218 22.3403C67.4245 23.1694 66.5547 23.8757 65.6086 24.4591C64.693 25.0119 63.7469 25.2883 62.7703 25.2883ZM57.8261 23.6761C58.1923 23.6761 58.6959 23.4151 59.3368 22.893C60.0083 22.3403 60.7255 21.6647 61.4885 20.8663C62.2515 20.0371 62.9687 19.1773 63.6401 18.2868C64.3115 17.3655 64.8609 16.5364 65.2881 15.7994C65.7459 15.0317 65.9748 14.4482 65.9748 14.049C65.9748 13.7112 65.868 13.4809 65.6544 13.3581C65.4713 13.2353 65.2271 13.1738 64.9219 13.1738C64.4336 13.1738 63.8995 13.3581 63.3196 13.7266C62.7703 14.0644 62.3278 14.4022 61.992 14.74C61.6258 15.0778 61.1833 15.6152 60.6644 16.3522C60.1761 17.0584 59.6878 17.8415 59.1995 18.7013C58.7112 19.5612 58.2992 20.3903 57.9635 21.1887C57.6277 21.9871 57.4599 22.632 57.4599 23.1233C57.4599 23.4918 57.582 23.6761 57.8261 23.6761Z" fill="black"/>
</svg>
